<svg id="圖層_1" data-name="圖層 1" xmlns="http://www.w3.org/2000/svg" xmlns:xlink="http://www.w3.org/1999/xlink" viewBox="0 0 201.31 53.01"><defs><style>.cls-1{isolation:isolate;font-size:11.45px;fill:#ff6042;font-family:AdobeFanHeitiStd-Bold-B5pc-H, Adobe Fan Heiti Std;letter-spacing:0.07em;}.cls-2{fill:url(#radial-gradient);}.cls-3{fill:#ed1e79;}.cls-4{fill:#fff;}.cls-5,.cls-6{fill:#424957;}.cls-6{fill-rule:evenodd;}</style><radialGradient id="radial-gradient" cx="16.38" cy="21.57" r="26.66" gradientTransform="translate(47.71 -3.97) rotate(71.43)" gradientUnits="userSpaceOnUse"><stop offset="0" stop-color="#ed1e79"/><stop offset="0.54" stop-color="#ed1e79"/><stop offset="1" stop-color="#6d0063"/></radialGradient></defs><title>logo-02</title><text class="cls-1" transform="translate(43.98 49.77)"><tspan xml:space="preserve">網站設計 電商行銷  一次到位</tspan></text><circle class="cls-2" cx="26.61" cy="31.19" r="15.34" transform="matrix(0.32, -0.95, 0.95, 0.32, -16.12, 42.49)"/><circle class="cls-2" cx="26.61" cy="31.19" r="15.34" transform="matrix(0.32, -0.95, 0.95, 0.32, -16.12, 42.49)"/><path class="cls-3" d="M28.41,15.86A2.43,2.43,0,1,1,26,13.44,2.43,2.43,0,0,1,28.41,15.86Z" transform="translate(-4.69 -4)"/><path class="cls-3" d="M19.35,20.66A3.63,3.63,0,1,1,15.72,17,3.63,3.63,0,0,1,19.35,20.66Z" transform="translate(-4.69 -4)"/><circle class="cls-4" cx="6.28" cy="21.49" r="3.18"/><path class="cls-4" d="M23.7,16.93a2.79,2.79,0,1,1-2.79-2.79A2.79,2.79,0,0,1,23.7,16.93Z" transform="translate(-4.69 -4)"/><path class="cls-3" d="M13.06,25.16a1.93,1.93,0,1,1-1.93-1.93A1.92,1.92,0,0,1,13.06,25.16Z" transform="translate(-4.69 -4)"/><path class="cls-3" d="M13.25,15.79a1.39,1.39,0,1,1-1.39-1.39A1.39,1.39,0,0,1,13.25,15.79Z" transform="translate(-4.69 -4)"/><path class="cls-3" d="M7.47,22.8a1.39,1.39,0,1,1-1.39-1.39A1.39,1.39,0,0,1,7.47,22.8Z" transform="translate(-4.69 -4)"/><path class="cls-3" d="M26.38,10.64A1.39,1.39,0,1,1,25,9.25,1.39,1.39,0,0,1,26.38,10.64Z" transform="translate(-4.69 -4)"/><path class="cls-3" d="M12.74,4.86A.86.86,0,1,1,11.88,4,.86.86,0,0,1,12.74,4.86Z" transform="translate(-4.69 -4)"/><path class="cls-3" d="M19.77,10.66a.8.8,0,1,1-.8-.8A.8.8,0,0,1,19.77,10.66Z" transform="translate(-4.69 -4)"/><path class="cls-3" d="M7.68,16.7a.8.8,0,0,1-1.6,0,.8.8,0,0,1,1.6,0Z" transform="translate(-4.69 -4)"/><path class="cls-3" d="M10,11.46a.81.81,0,1,1-.81-.8A.8.8,0,0,1,10,11.46Z" transform="translate(-4.69 -4)"/><path class="cls-3" d="M21.68,7.08a.8.8,0,1,1-.8-.8A.8.8,0,0,1,21.68,7.08Z" transform="translate(-4.69 -4)"/><path class="cls-3" d="M22.84,16.68a1.93,1.93,0,1,1-1.93-1.93A1.93,1.93,0,0,1,22.84,16.68Z" transform="translate(-4.69 -4)"/><path class="cls-3" d="M13.55,31a2.42,2.42,0,1,1-2.42-2.42A2.42,2.42,0,0,1,13.55,31Z" transform="translate(-4.69 -4)"/><polygon class="cls-4" points="22.15 19.85 12.94 19.85 12.94 22.29 19.85 22.29 22.15 19.85"/><polygon class="cls-4" points="15.39 32.09 15.24 32.25 15.24 28.44 20.42 28.44 22.86 26.01 15.25 26.01 12.94 26.01 12.81 26.01 12.81 28.14 12.81 34.6 12.97 34.6 21.93 34.6 19.76 32.09 15.39 32.09"/><path class="cls-4" d="M34.8,24.42A7.15,7.15,0,0,0,32,23.85a7,7,0,0,0-2.85.59A7.22,7.22,0,0,0,26.74,26a7.66,7.66,0,0,0-1.59,2.32c-.07.17-.14.37-.2.53h2.69a4.79,4.79,0,0,1,.83-1.12A4.66,4.66,0,0,1,30,26.69,5,5,0,0,1,32,26.32a4.77,4.77,0,0,1,3,1V24.48S34.84,24.44,34.8,24.42Z" transform="translate(-4.69 -4)"/><path class="cls-4" d="M30,35.76a4.78,4.78,0,0,1-1.55-1.07,5.57,5.57,0,0,1-.9-1.19H24.94c.06.16.13.37.22.56a7.52,7.52,0,0,0,1.58,2.36A7.64,7.64,0,0,0,29.1,38a7.32,7.32,0,0,0,5.71,0L32,36.12A5.11,5.11,0,0,1,30,35.76Z" transform="translate(-4.69 -4)"/><rect class="cls-5" x="102.79" y="5.49" width="8.96" height="30"/><path class="cls-6" d="M162.33,20.13A4.83,4.83,0,0,1,167.14,25v9.72a4.83,4.83,0,0,1-4.82,4.82h-31.7V37.05A5.1,5.1,0,0,1,135.71,32h21.82V27.73c-7.69,0-15.34,0-23,0a4.83,4.83,0,0,1-4.81-4.82V20.13ZM129.7,16.49V13.67A4.73,4.73,0,0,1,134.42,9H166V11.4a5.1,5.1,0,0,1-5.09,5.09Z" transform="translate(-4.69 -4)"/><path class="cls-6" d="M68.48,11.79l7,7,7-7a4.69,4.69,0,0,1,3.44-1.42H96.22L81.64,25l-1.8,1.8V39.5H71.13V26.75L69.33,25,54.75,10.37h10.3A4.67,4.67,0,0,1,68.48,11.79Z" transform="translate(-4.69 -4)"/><rect class="cls-5" x="175.72" y="4.97" width="8.96" height="30"/></svg>